# xmcd CD database file
#
# Track frame offsets:
#	150
#	17325
#	37800
#	54675
#	71475
#	92625
#	102075
#	119025
#	140325
#	145500
#	165000
#	182400
#	201225
#
# Disc length: 2975 seconds
#
# Revision: 0
# Processed by: cddbd v1.5.2PL0 Copyright (c) Steve Scherf et al.
# Submitted via: CDex 1.70beta2
#
DISCID=a00b9d0d
DTITLE=Benjamin Herman - Blue Sky Blond
DYEAR=2009
DGENRE=Jazz
TTITLE0=Durban Poison 
TTITLE1=Chasing The Dragon
TTITLE2=Airhead
TTITLE3=Indian Hay
TTITLE4=Black Mote
TTITLE5=Wired
TTITLE6=Sunday Blossom
TTITLE7=Ketama
TTITLE8=Haze
TTITLE9=Lowryder
TTITLE10=Skunkaholic
TTITLE11=Khat
TTITLE12=Durban Poison (C-mon and Kypski remix)
EXTD=YEAR: 2009
EXTT0=
EXTT1=
EXTT2=
EXTT3=
EXTT4=
EXTT5=
EXTT6=
EXTT7=
EXTT8=
EXTT9=
EXTT10=
EXTT11=
EXTT12=
PLAYORDER=
